<svg width="25" height="26" viewBox="0 0 25 26" fill="none" xmlns="http://www.w3.org/2000/svg">
<path d="M0 2.20833C0 1.05599 0.797991 0.125 1.78571 0.125H23.2143C24.202 0.125 25 1.05599 25 2.20833C25 3.36068 24.202 4.29167 23.2143 4.29167H1.78571C0.797991 4.29167 0 3.36068 0 2.20833ZM0 12.625C0 11.4727 0.797991 10.5417 1.78571 10.5417H23.2143C24.202 10.5417 25 11.4727 25 12.625C25 13.7773 24.202 14.7083 23.2143 14.7083H1.78571C0.797991 14.7083 0 13.7773 0 12.625ZM25 23.0417C25 24.194 24.202 25.125 23.2143 25.125H1.78571C0.797991 25.125 0 24.194 0 23.0417C0 21.8893 0.797991 20.9583 1.78571 20.9583H23.2143C24.202 20.9583 25 21.8893 25 23.0417Z" fill="#2169FF"/>
</svg>
