<svg width="25" height="25" viewBox="0 0 25 25" fill="none" xmlns="http://www.w3.org/2000/svg">
<path d="M24.2601 4.26948C25.2362 3.29338 25.2362 1.70818 24.2601 0.732079C23.284 -0.244026 21.6988 -0.244026 20.7227 0.732079L12.5 8.96259L4.26948 0.739887C3.29338 -0.236217 1.70818 -0.236217 0.732079 0.739887C-0.244026 1.71599 -0.244026 3.30119 0.732079 4.27729L8.96259 12.5L0.739888 20.7305C-0.236217 21.7066 -0.236217 23.2918 0.739888 24.2679C1.71599 25.244 3.30119 25.244 4.27729 24.2679L12.5 16.0374L20.7305 24.2601C21.7066 25.2362 23.2918 25.2362 24.2679 24.2601C25.244 23.284 25.244 21.6988 24.2679 20.7227L16.0374 12.5L24.2601 4.26948Z" fill="#2169FF"/>
</svg>
